<svg width="136" height="45" viewBox="0 0 136 45" fill="none" xmlns="http://www.w3.org/2000/svg">
<path d="M11.3617 43.1235H6.75413V31.7462H0V27.9495H18.1002V31.7462H11.3617V43.1235Z" fill="#1D1D1B"/>
<path d="M19.7838 27.9495H33.8716C37.4345 27.9495 38.9262 29.0877 38.9262 32.7493C38.9262 33.7966 38.856 34.9531 38.2921 35.8626C37.7022 36.7774 36.6107 36.9827 35.6596 37.2971C37.5904 37.5492 38.7391 38.1183 38.7391 40.2155V43.1235H34.0769V41.6708C34.0769 40.0128 34.0042 39.2332 32.0785 39.2332H24.3888V43.1235H19.7812V27.9521L19.7838 27.9495ZM31.356 35.5456H31.9382C34.0951 35.5456 34.277 35.1168 34.277 33.4302C34.2458 32.6298 34.2355 32.0243 33.3701 31.7722C32.9543 31.6553 32.4839 31.6319 32.0525 31.6319H24.3888V35.5456H31.3534H31.356Z" fill="#1D1D1B"/>
<path d="M94.9725 43.1236H90.6248V31.5696L83.9512 43.1236H80.2532L73.6446 31.5696V43.1236H69.3125V27.9521H76.6436L82.1997 38.0067L87.6908 27.9521H94.9725V43.1236Z" fill="#1D1D1B"/>
<path d="M96.6758 27.9495H113.555V31.4058H101.281V33.9993H112.731V37.0061H101.281V39.6906H113.555V43.1235H96.6758V27.9521V27.9495Z" fill="#1D1D1B"/>
<path d="M136 43.1236H128.671L119.552 31.7229V43.1236H115.223V27.9521H122.554L131.67 39.3268V27.9521H136V43.1236Z" fill="#1D1D1B"/>
<path d="M57.0705 0C51.3065 3.44333 48.7754 10.7094 51.3923 17.1335C53.3517 21.9698 57.7306 25.0909 62.5695 25.66C59.3081 24.3398 56.5534 21.7411 55.1215 18.212C53.7208 14.7739 53.8377 11.1018 55.1449 7.91577C55.1605 12.3778 56.8029 16.029 61.1194 18.4121C65.4515 20.8029 68.3855 25.556 68.3855 30.9172C68.3855 37.1802 64.3756 42.5076 58.8039 44.4775C61.7873 42.8013 63.8143 39.597 63.8143 35.9224C63.8143 30.5118 59.438 26.1304 54.043 26.1304C48.648 26.1304 44.2847 30.5092 44.2847 35.9224C44.2847 39.5892 46.2936 42.7883 49.2717 44.4619C43.7026 42.479 39.7109 37.1386 39.7109 30.9198C39.7057 17.4454 46.6652 6.29156 57.0705 0Z" fill="#1D1D1B"/>
<path d="M59.2426 35.9588C59.2426 38.8434 56.9115 41.1797 54.0373 41.1797C51.1631 41.1797 48.832 38.8408 48.832 35.9588C48.832 33.0768 51.1709 30.7457 54.0373 30.7457C56.9037 30.7457 59.2426 33.0742 59.2426 35.9588Z" fill="#1D1D1B"/>
</svg>
